<svg fill="none" height="112" viewBox="0 0 208 112" width="208" xmlns="http://www.w3.org/2000/svg" xmlns:xlink="http://www.w3.org/1999/xlink"><linearGradient id="a" gradientUnits="userSpaceOnUse" x1="123.013" x2="119.07" y1="68.5275" y2="68.7986"><stop offset="0" stop-color="#f7f7f7"></stop><stop offset="1" stop-color="#dbdcdc"></stop></linearGradient><clipPath id="b"><path d="m0 0h208v112h-208z"></path></clipPath><mask id="c" height="1" maskUnits="userSpaceOnUse" width="1" x="124" y="48"><path d="m124.883 48.0252.003.022-.003-.0335z" fill="url(#a)"></path></mask><g clip-path="url(#b)"><path clip-rule="evenodd" d="m148.029 56.0031c0 24.3153-19.716 44.0259-44.03 44.0259-24.3114 0-44.0276-19.7106-44.0276-44.0259 0-24.3095 19.7153-44.0314 44.0276-44.0314 24.314 0 44.03 19.7219 44.03 44.0314z" fill="#e73e44" fill-rule="evenodd"></path><g mask="url(#c)"><path clip-rule="evenodd" d="m124.883 48.0252.003.022-.003-.0335z" fill="url(#a)" fill-rule="evenodd"></path></g><path clip-rule="evenodd" d="m67.3059 51.0923c0 .0335.0718.9811.0718.9811-.0026.104.0246.2065.0786.2954s.1323.1605.2258.2061c.1799.0747.3905.0383.5513-.1139 1.6434-1.3744 4.1368-2.6072 6.1372-1.9143 1.5544.5399 2.6264 2.1526 3.1777 4.8068 1.1419 5.5495-2.6733 8.2238-5.0422 9.3226l-.0861.0363-3.0418 1.4989s-.1695.067-.3523-.0268c-.1818-.0918-.2546-.2163-.3685-.5408-2.0751-7.6475-2.7757-15.6655-2.0004-23.1437.0908-.6625.3602-1.2878.7791-1.809l2.5317-2.7202.2909-.311c1.3994-1.3573 2.6819-2.0225 3.3883-1.7315.604.2488.7485 1.1802.76 1.9239.1072 3.975-2.1115 8.0399-6.7909 12.4237 0 0-.3494.2929-.3102.8164zm14.0222-5.5131c-1.386-.8289-2.9672-1.0672-4.5464-.8404 2.8915-3.0696 4.4631-6.4129 4.4631-9.7887 0-.3044-.0172-.6174-.0421-.9246-.1579-2.1009-1.139-3.6745-2.6149-4.2114-1.519-.5514-4.2536-.2747-8.6421 4.1942l-2.6177 2.9394c-.715.8872-3.4745 5.0594-3.9952 9.401-.848 7.3949-.3024 14.7649 1.5765 21.3118.2211.7599.9188 2.6101 2.6177 3.3002 1.8071.7236 3.5185-.1493 5.0231-.9332l.4049-.2001 1.5544-.6987 1.5152-.67 1.8539-.8059c1.3209-.5408 2.5709-1.05 3.7731-2.0646 1.6175-1.3729 2.8012-3.1861 3.4074-5.2193.314-1.0586.5293-2.2138.649-3.5299.0909-1.0203.1857-2.993-.1886-4.735-.8289-3.8266-2.7393-5.6634-4.1913-6.5248zm34.5549-23.205c-.857-2.9289-2.264-3.5491-2.663-3.685-3.597-1.1543-7.421-1.4148-11.141-.759-5.5429 1.0193-10.3449 3.9204-13.5111 8.1864-3.3308 4.4833-4.6163 10.0634-3.6295 15.7163.9974 5.6759 3.8726 10.2673 8.3195 13.2794 5.2088 3.5185 12.1601 4.5905 19.5721 3.0198 4.374-.9418 8.012-2.6513 10.815-5.07 1.253-1.0863 1.503-2.4665 1.503-3.4447 0 0 .055-.7811-.549-3.2448-.166-.6058-.429-.7781-.85-.7781-.306 0-.632.3465-.696.4211-2.084 2.4187-5.275 4.1033-9.262 4.8929-10.206 1.9622-18.0646-2.8092-20.0095-12.1624-.8366-4.0487-.1379-7.9347 1.9592-10.9497 2.1306-3.0485 5.6083-5.0767 9.7993-5.7046 3.171-.4709 6.41-.0746 9.373 1.1467 0 0 1.241.357.97-.8643z" fill="#fefefe" fill-rule="evenodd"></path></g></svg>