<svg fill="none" height="112" viewBox="0 0 208 112" width="208" xmlns="http://www.w3.org/2000/svg" xmlns:xlink="http://www.w3.org/1999/xlink"><clipPath id="a"><path d="m0 0h208v112h-208z"></path></clipPath><g clip-path="url(#a)" clip-rule="evenodd" fill-rule="evenodd"><path d="m120.88 66.5767c-.243-1.4229-.626-2.8006-1.197-4.0755-1.802-3.8905-4.306-7.1517-8.073-9.3478-5.844-3.4134-12.9136-3.3888-18.6999.1192-2.6156 1.5793-4.7706 3.8576-6.1606 6.5925-.4689.9294-.8513 1.9-1.1639 2.8911-1.5258 4.8446-1.4682 11.363 1.279 15.784.8965 1.4476 2.192 2.6772 3.7753 3.2941 1.5875.6087 3.4669.547 4.894-.3824 1.8424-1.1845 2.1673-3.4587 1.8259-5.4739-.4318-2.5703-.7608-5.1078.181-7.6287.3084-.8061.7361-1.5793 1.353-2.1797.3784-.3578.8225-.658 1.2952-.8801.996-.4894 2.135-.7073 3.229-.5264 1.92.3126 3.483 1.7931 4.338 3.5409.848 1.7396 1.078 3.7137 1.172 5.6507.399 8.443-1.616 17.1904-3.767 25.2963-.222.839-.452 1.67-.686 2.5-.19.642-.51 1.456-.107 2.085.176.264.456.453.752.572 1.255.506 2.274-.259 3.113-1.106 4.952-4.9805 8.123-11.4043 10.294-18.009.81-2.4634 1.505-4.9803 1.974-7.5342.638-3.4998 1.004-7.4972.379-11.1821z" fill="#008775"></path><path d="m156.318 27.552c0-1.2667-1.118-2.1015-2.328-2.0645-1.221.0494-2.356.6704-3.479 1.1063-21.776 8.2744-46.332 9.8413-69.2798 6.5389-3.9275-.5675-7.9044-1.3571-11.8524-1.974-2.4634-.3866-4.9104-.9459-7.3985-1.1309-2.1221-.1645-4.7706-.2386-6.4855 1.2337-2.2619 1.9576-2.1015 5.663-.8184 8.1141 1.5422 2.9364 4.24 5.1366 7.0489 6.8145 2.7266 1.6245 5.9838 3.36 9.2368 3.1543 8.768-.5593 17.5154-1.4065 26.234-2.5374 14.8629-1.9329 30.4489-3.7548 44.4119-9.5206 4.564-1.8876 9.068-4.2359 12.979-7.2751.711-.5387 1.731-1.4311 1.731-2.4593z" fill="#008775"></path><path d="m93.8665 20.0899c0 4.7294 3.8411 8.5623 8.5705 8.5623 4.725 0 8.562-3.8329 8.562-8.5623 0-.7033-.16-1.4106-.464-2.0481-.732-1.5586-1.559-2.3195-1.473-4.1783.107-2.521-3.117-2.5539-4.857-2.5539-1.891 0-3.907.2632-5.6132 1.1227-1.3613.6909-2.5334 1.7437-3.36 3.0268-.8554 1.3119-1.3242 2.8665-1.3612 4.4334-.0041.0699-.0041.1316-.0041.1974z" fill="#d71e3d"></path></g></svg>