<svg enable-background="new 0 0 208 112" viewBox="0 0 208 112" xmlns="http://www.w3.org/2000/svg"><g fill="#8b95a1"><path d="m99.547 53.893h-3c-.353 0-.473.18-.473.573v12.634c0 .36-.247.507-.6.507h-5.48c-.42 0-.6-.147-.6-.507v-12.627c0-.393-.207-.573-.473-.573l-3.027-.007c-.36 0-.507.18-.507.573v13.047c.007.91.372 1.781 1.015 2.425s1.515 1.008 2.425 1.015c.3 0 .633 0 .927-.093l5.747-1.553c.327-.12.573.027.573.42v.48c0 .36.12.48.473.48h3c.327 0 .533-.12.533-.453v-15.768c0-.393-.207-.573-.533-.573z"></path><path d="m62.1 48.693h-3.107c-.36 0-.48.18-.48.513v8.133c0 .393-.273.573-.66.573h-8.167c-.36 0-.573-.18-.573-.573v-8.139c0-.327-.207-.5-.533-.5l-3.18-.007c-.293 0-.413.18-.413.507v21.04c0 .333.12.453.413.453h3.18c.327 0 .533-.12.533-.48v-8.467c0-.4.213-.6.573-.6h8.173c.393 0 .66.2.66.6v8.467c0 .36.12.48.48.48h3.1c.36 0 .573-.12.573-.453v-21.04c.001-.327-.212-.507-.572-.507z"></path><path d="m80.84 53.893h-2.993c-.36 0-.507.18-.507.573v12.634c0 .36-.24.533-.6.533h-5.48c-.42 0-.567-.173-.567-.533v-12.627c0-.393-.213-.573-.507-.573h-2.993c-.36 0-.513.18-.513.573v13.073c-.003.458.086.913.262 1.336s.435.807.762 1.128.715.574 1.142.743c.426.169.882.25 1.341.239.267 0 .6 0 .867-.067l5.747-1.613c.327-.093.533.06.533.42v8.433c0 .327.153.54.513.54h.387c.3 0 .567-.18.747-.48l2.04-3.327c.217-.426.338-.895.353-1.373v-19.06c-.001-.392-.201-.572-.534-.572z"></path><path d="m115.28 53.633c-.293 0-.567.087-.867.147l-5.713 1.56c-.447.12-.6-.027-.6-.36v-.507c0-.393-.213-.573-.48-.573h-3.02c-.36 0-.513.18-.513.573v15.767c0 .333.153.453.513.453h3.02c.273 0 .48-.12.48-.48v-12.633c0-.387.18-.6.6-.6h5.473c.36 0 .6.213.6.6v12.633c0 .36.12.48.474.48h3c.326 0 .54-.12.54-.453v-13.107c0-1.853-1.527-3.5-3.507-3.5z"></path><path d="m136.407 46.633-3.054-.007c-.3 0-.446.24-.446.567v6.2c0 .36-.18.507-.567.507h-2.753c-.742-.014-1.472.195-2.094.6l-3.173 1.853c-1.44.78-2.127 2.007-2.127 3.62v7.547c.024.911.399 1.777 1.046 2.418s1.517 1.007 2.428 1.022c.3 0 .566 0 .9-.093l5.773-1.553c.387-.12.567.027.567.42v.48c0 .36.146.48.446.48h3.054c.36 0 .506-.12.506-.453v-23.041c0-.334-.146-.567-.506-.567zm-3.5 20.467c0 .36-.18.507-.6.507h-5.534c-.42 0-.573-.147-.573-.507v-9.487c0-.42.153-.627.573-.627h5.534c.42 0 .6.207.6.627z"></path><path d="m171.407 32.913h-134.814c-6.94 0-12.593 5.653-12.593 12.593v33.58h4.2v-33.58c0-2.228.885-4.364 2.46-5.94s3.712-2.46 5.94-2.46h134.807c4.64 0 8.393 3.767 8.393 8.4v33.58h4.2v-33.58c0-6.94-5.653-12.593-12.593-12.593z"></path><path d="m162.56 46.626h-2.993c-.387 0-.507.24-.507.573v2.453c0 .36.12.48.507.48h2.993c.3 0 .507-.12.507-.48v-2.452c0-.334-.207-.574-.507-.574z"></path><path d="m154.54 53.9h-6.853c-.734-.01-1.453.199-2.067.6l-3.2 1.853c-.659.339-1.207.861-1.578 1.503s-.55 1.377-.515 2.117v7.547c.007.915.375 1.79 1.024 2.434.65.644 1.528 1.006 2.442 1.006.3 0 .567 0 .9-.093l5.747-1.553c.387-.12.6.027.6.42v.48c0 .36.113.48.447.48h3.053c.327 0 .507-.12.507-.453v-15.768c0-.393-.174-.573-.507-.573zm-3.5 13.2c0 .36-.213.507-.6.507h-5.533c-.42 0-.574-.147-.574-.507v-9.487c0-.42.154-.627.574-.627h5.533c.387 0 .6.207.6.627z"></path><path d="m162.56 53.9h-2.993c-.387 0-.507.18-.507.573v15.767c0 .333.12.453.507.453h2.993c.3 0 .507-.12.507-.453v-15.767c0-.393-.207-.573-.507-.573z"></path></g></svg>