<svg fill="none" height="112" viewBox="0 0 208 112" width="208" xmlns="http://www.w3.org/2000/svg" xmlns:xlink="http://www.w3.org/1999/xlink"><clipPath id="a"><path d="m51 3h105v105h-105z"></path></clipPath><g clip-path="url(#a)" clip-rule="evenodd" fill-rule="evenodd"><path d="m140.412 99.25h-73.8282c-3.7582 0-6.8338-3.0756-6.8338-6.8381v-73.8238c0-3.7625 3.0756-6.8381 6.8338-6.8381h73.8282c3.762 0 6.838 3.0756 6.838 6.8381v73.8238c0 3.7625-3.076 6.8381-6.838 6.8381z" fill="#f8df03"></path><path d="m101.693 67.5402h4.528v-23.9313h-4.528zm16.354-11.9656c1.989-1.3001 3.622-3.0753 4.753-5.1652 1.13-2.09 1.722-4.4287 1.722-6.8048-.008-3.8051-1.527-7.4512-4.223-10.1365s-6.348-4.1899-10.153-4.1829h-24.0892c-.2204 0-.4319.0876-.5877.2434-.1559.1559-.2435.3674-.2435.5878v50.9119c0 .4638.3719.8313.8312.8313h24.0892c3.805.0069 7.457-1.4977 10.153-4.1829 2.696-2.6853 4.215-6.3314 4.223-10.1365 0-5.005-2.577-9.4063-6.475-11.9656z" fill="#1f1e1e"></path></g></svg>