<svg fill="none" height="112" viewBox="0 0 208 112" width="208" xmlns="http://www.w3.org/2000/svg"><path clip-rule="evenodd" d="m157.405 57.524c-.003-.0013-.951-.5995-.951-.5995-3.224-3.2197-7.715-4.6177-13.719-4.2685-4.996.3094-8.961 2.2864-11.989 4.1337 0-.0475-.004-.0911-.004-.1386 0-1.5662.179-3.2621.352-4.9105.18-1.6753.358-3.3789.358-4.9938 0-1.6471-.187-3.2056-.756-4.5407-.143-.3467-.457-.5482-.855-.5482-1.618.0359-4.771 1.1413-5.533 1.8114l-.417.9115c-.031 1.787-.421 6.7809-.816 7.3881.015-.0231-.216.6008-.216.6008-.677 7.1352-.694 13.4013-.063 18.7841.07.5341 1.106 1.3506 1.906 1.642.873.3235 3.623-.4121 5.203-1.0129-.014.0051.601-.0899.601-.0899.502-.0552.796-.4763.769-1.045-.001-.0115.036-1.5495.036-1.5495 1.146-4.6485 5.776-10.1867 11.246-11.0237 3.094-.4891 5.537.2991 7.466 2.4083.263.3762.826 3.7178-1.214 7.5602-1.519 2.8487-4.555 5.239-8.546 6.7423-3.781 1.4314-7.946 2.0156-13.081 1.8333-.209-.1374-4.811-3.248-4.811-3.248-4.067-2.8589-9.125-6.4176-13.72-8.1622-.8-.3017-2.25-1.5046-3.116-2.2209l-.475-.3903c-2.644-2.1234-7.6792-5.4766-11.727-8.1738 0 0-1.8242-1.2234-2.1811-1.4583.0051-.1541.0128-.4571.0128-.4571.1156-.1271 2.6523-1.6522 2.6523-1.6522 3.5586-2.081 5.2031-3.1016 5.5549-3.6292-.0719.0822.475-.2799.475-.2799.0257-.0141 8.8161-4.9887 8.8161-4.9887 8.463-4.655 18.058-9.9326 23.095-15.1485.006-.0064.245-.7934.245-.7934l.109-.7112c.331-1.113.356-1.9719.077-2.963-.077-.2837-.336-.6097-.683-.6752-3.932-.3864-9.01 1.9693-13.627 6.2982-1.04.9821-1.917 1.457-2.841 1.9616l-.708.3954c-5.092 2.8923-16.5654 10.0095-22.5645 13.8532.3954-6.4587 1.5894-15.6402 3.0554-23.2979l-.1604-.9141c-.0193-.0321-.6201-1.158-.6201-1.158l-.4712-.8306-.136-.0359c-1.1965-.6072-2.1747-.3582-2.8937-.172.0039 0-1.2029.439-1.2029.439l-1.5944.579c-.3145.0642-.5443.2542-.6676.5636-2.8653 6.9298-5.257 18.3297-5.8206 27.4509-5.7333-3.6498-11.0314-6.2661-13.6234-7.5345l-.077-.0372-.312-.0693c-.9268-.122-2.0707-.8062-3.1722-1.4751-.1078-.0654-2.1734-1.4083-2.1734-1.4083l-3.3339-2.1323c.0333.018-.873-.199-.873-.199-1.4353.2439-4.1761 2.0913-4.9913 3.3455-.1117.1669-.1502.3492-.1502.5366 0 .2606.0783.5315.1502.7857l.1489.6804.1541.4108c1.5957 1.6342 5.6216 4.3635 9.5718 6.4869l4.5779 2.425 7.0055 3.8283c.0026.0321 1.2004.9461 1.2004.9461.0051 0 .8254.4776.8254.4776s.0886.0526.1412.0924c-1.8666 1.2478-12.7375 8.5127-12.7375 8.5127l-6.7065 4.438c-.6303.4326-3.2826 1.6214-3.8603 1.855-1.4571.588-2.5521 1.4956-3.0117 2.4841l-.1772.3865.1798.2567.5096.3877c-.0192-.0026.6907.4506.6907.4506l.7369.5058c.0167.0077.6996.1053.6996.1053 1.176.0475 2.9232-.6239 6.1852-2.0502 2.9951-1.33 11.1355-6.2378 14.6132-8.3342l1.4854-.8936c.6136.0501 1.294-.4672 1.8909-.9243.701-.5558 2.221-1.4866 3.1453-1.8948.0244-.0103.5571-.303 1.0488-.5777-.0051.1566-.009.3992-.009.3992.1567 10.6438.7716 18.3811 1.9308 24.3429l.0231.1079.1117.2388c.5752.846 1.226 3.3673 1.7999 5.5908l1.3287 4.4406c.0257.05.3761.4185.3761.4185.7549.5071 3.0593 1.3967 4.6024 1.217l.3838-.0488.2439-.5405c.1284-.665.1746-1.3171.1746-2.0335 0-.8126-.059-1.71-.1335-2.8037l-.1027-1.6047c-.4865-7.4292-.9757-18.1641-.9757-25.2955 0-.199.0026-.3774.0052-.5687 1.2581.7959 6.7847 4.275 6.7847 4.275 9.3968 6.0966 23.5928 15.3089 32.1728 17.7455.447.1323.915.027 1.245-.2862.013-.0142 1.324-.8473 1.324-.8473l.24-.1002c.495-.2336.83-1.0642.886-1.968 7.23-.362 17.318-3.1452 22.713-9.9312 2.09-2.6318 3.03-5.8489 3.03-8.6129 0-2.2556-.628-4.2069-1.765-5.2776z" fill="#f7b500" fill-rule="evenodd"></path></svg>