<svg enable-background="new 0 0 208 112" viewBox="0 0 208 112" xmlns="http://www.w3.org/2000/svg"><g clip-rule="evenodd" fill="#0d0660" fill-rule="evenodd"><path d="m78.434 46.546c-2.565 0-4.939.927-6.685 2.61l-.601.578v-13.104h-6.835v22.395c0 8.356 4.901 13.547 12.791 13.547 7.715 0 13.313-5.462 13.313-12.989.001-7.554-5.039-13.037-11.983-13.037zm-1.091 19.653c-3.588 0-6.508-2.975-6.508-6.632 0-3.658 2.919-6.633 6.508-6.633 3.588 0 6.507 2.975 6.507 6.633 0 3.657-2.919 6.632-6.507 6.632z"></path><path d="m61.685 36.625h-8.749l-13.523 15.991v-15.991h-6.913v35.126h6.913v-15.851l13.798 15.851h8.887l-15.265-17.563z"></path><path d="m175.5 47.368h-7.613l-8.747 10.532v-21.275h-6.834v35.132h6.834v-10.533l8.747 10.533h7.613l-10.127-12.195z"></path><path d="m138.91 46.546c-4.219 0-6.823 2.012-8.066 3.422v-2.588h-6.597v24.377h6.835l-.001-13.276c0-3.318 2.268-5.636 5.105-5.636 2.836 0 5.103 2.318 5.103 5.636v13.276h6.835v-15.366c0-5.705-4.058-9.845-9.214-9.845z"></path><path d="m106.8 46.546c-7.632 0-13.172 5.483-13.172 13.037 0 7.526 5.105 12.989 12.137 12.989 4.999 0 7.67-3.689 7.696-3.726l.387-.546v3.456h6.217v-12.173c0-7.554-5.578-13.037-13.265-13.037zm.206 19.654c-3.588 0-6.507-2.975-6.507-6.632s2.919-6.633 6.507-6.633c3.589 0 6.508 2.975 6.508 6.633 0 3.657-2.919 6.632-6.508 6.632z"></path></g></svg>