<svg fill="none" height="112" viewBox="0 0 208 112" width="208" xmlns="http://www.w3.org/2000/svg" xmlns:xlink="http://www.w3.org/1999/xlink"><mask id="a" height="88" maskUnits="userSpaceOnUse" width="88" x="60" y="12"><path clip-rule="evenodd" d="m60 12h88v88h-88z" fill="#fff" fill-opacity=".1" fill-rule="evenodd"></path></mask><path clip-rule="evenodd" d="m146.596 43.0639c-1.067-8.0598-3.92-15.3616-8.948-20.7099h-.004c-5.344-5.0275-12.65-7.8807-20.706-8.947-7.698-1.0205-12.938-.7706-12.938-.7706s-5.2406-.2499-12.9384.7706c-8.0561 1.0663-15.3582 3.9195-20.7066 8.947-5.0278 5.3483-7.8811 12.6501-8.9475 20.7099-1.0206 7.6934-.7706 12.9375-.7706 12.9375s-.25 5.2399.7706 12.9333c1.0664 8.0598 3.9197 15.3616 8.9475 20.7099 5.3484 5.0275 12.6505 7.8807 20.7066 8.9512 7.6978 1.0163 12.9384.7664 12.9384.7664s5.24.2499 12.938-.7664c8.056-1.0705 15.362-3.9237 20.706-8.9512h.004c5.028-5.3483 7.881-12.6501 8.948-20.7099 1.02-7.6934.766-12.9333.766-12.9333s.254-5.2441-.766-12.9375z" fill="#1f4ac7" fill-rule="evenodd"></path><g mask="url(#a)"><path clip-rule="evenodd" d="m105.608 12c-.925 0-1.479.0208-1.608.025-.129-.0042-.683-.025-1.608-.025-1.999 0-6.1439.1041-11.4091.7997-8.6517 1.1455-15.9288 4.2986-21.0482 9.1096-4.8403 5.1483-7.9894 12.4251-9.1349 21.0764-.9789 7.3643-.7915 12.5792-.7748 13.0166-.0167.4332-.2041 5.6481.7748 13.0166 1.1455 8.6471 4.2946 15.9239 9.1099 21.0431 5.1444 4.8401 12.4215 7.9932 21.0732 9.1387 5.261.6956 9.4011.7993 11.4051.7993.925 0 1.483-.0204 1.612-.0246.133.0042.687.0246 1.612.0246 2.004 0 6.144-.1037 11.405-.7993 8.614-1.1413 15.871-4.2736 20.986-9.0512l.017-.0084.07-.0791c4.816-5.1192 7.965-12.396 9.11-21.0431.979-7.3685.792-12.5834.775-13.0166.017-.4374.204-5.6523-.775-13.0166-1.145-8.6513-4.294-15.9281-9.11-21.0473l-.179-.1957h-.025c-5.107-4.7193-12.317-7.81-20.869-8.943-5.265-.6956-9.406-.7997-11.409-.7997zm0 .6123c2.112 0 6.169.1125 11.33.7956 8.056 1.0663 15.358 3.9195 20.707 8.9471 5.032 5.3482 7.885 12.65 8.951 20.7098 1.021 7.6934.767 12.9375.767 12.9375s.254 5.2399-.767 12.9333c-1.066 8.0598-3.919 15.3616-8.951 20.7099-5.349 5.0275-12.651 7.8807-20.707 8.947-5.157.6831-9.21.7956-11.326.7956-1.041 0-1.612-.025-1.612-.025s-.571.025-1.612.025c-2.116 0-6.1691-.1125-11.326-.7956-8.056-1.0663-15.3581-3.9195-20.7066-8.947-5.0319-5.3483-7.8811-12.6501-8.9516-20.7099-1.0206-7.6934-.7665-12.9333-.7665-12.9333s-.2541-5.2441.7665-12.9375c1.0705-8.0598 3.9197-15.3616 8.9516-20.7098 5.3485-5.0276 12.6506-7.8808 20.7066-8.9471 5.1611-.6831 9.218-.7956 11.33-.7956 1.037 0 1.608.025 1.608.025s.571-.025 1.608-.025z" fill="#000" fill-opacity=".1" fill-rule="evenodd"></path></g><g clip-rule="evenodd" fill-rule="evenodd"><path d="m80.8274 47.214v8.3848h3.2407c.6248 0 1.1955-.1083 1.7162-.3291.5165-.2166.9664-.5165 1.3371-.9039.3749-.3832.6665-.8288.8748-1.337.2082-.5123.3124-1.058.3124-1.637 0-.5831-.1042-1.1288-.3124-1.6369-.2083-.5082-.4999-.9497-.8748-1.3246-.3707-.3749-.8206-.6706-1.3371-.8872-.5207-.2208-1.0914-.3291-1.7162-.3291zm-4.2405-3.9279h7.7936c1.183 0 2.2744.2125 3.2741.6415.9956.4249 1.8578.9997 2.5868 1.7286.7248.7289 1.2954 1.5828 1.712 2.57.4165.9872.6248 2.041.6248 3.1656 0 1.1205-.2083 2.1785-.6248 3.1781-.4166.9956-.9872 1.8578-1.712 2.5867-.729.7289-1.5954 1.3037-2.6035 1.7286-1.008.429-2.1035.6415-3.2907.6415h-3.5198v6.5103h-4.2405z" fill="#fff"></path><path d="m103.05 62.205c.792 0 1.516-.1375 2.183-.4082.662-.2749 1.237-.654 1.712-1.1455.479-.4873.858-1.0496 1.137-1.6953.283-.6456.421-1.337.421-2.0784 0-.7206-.138-1.4037-.421-2.0494-.279-.6456-.658-1.2037-1.137-1.6828-.475-.479-1.05-.8538-1.712-1.1288-.667-.2707-1.391-.4082-2.183-.4082-.77 0-1.491.1375-2.166.4082-.675.275-1.262.6457-1.7619 1.1122-.4999.4707-.8872 1.0246-1.1663 1.6703-.2833.6456-.4207 1.337-.4207 2.0785 0 .7414.1374 1.4412.4207 2.0909.2791.654.6664 1.2205 1.1663 1.6995s1.0869.8539 1.7619 1.1288c.675.2707 1.396.4082 2.166.4082zm-.687 3.8654c-1.1 0-2.187-.2041-3.2534-.6165-1.0747-.4123-2.0328-1.008-2.8867-1.7869-.8497-.7831-1.537-1.7369-2.0577-2.8699-.5165-1.133-.779-2.4159-.779-3.8612 0-1.462.2541-2.7575.7665-3.8904.5082-1.1288 1.183-2.0868 2.0244-2.8658.8414-.783 1.8078-1.3787 2.8992-1.7869 1.0917-.4123 2.2077-.6164 3.3487-.6164 1.208 0 2.316.2166 3.337.6539 1.016.4332 1.858 1.0288 2.524 1.7786v-2.4034h4.207v18.2316h-4.207v-2.5909c-.666.8164-1.516 1.4579-2.557 1.9244-1.038.4665-2.158.6998-3.366.6998z" fill="#fff"></path><path d="m121.345 65.25-7.481-17.4443h4.491l5.077 12.4751 4.803-12.4751h4.424l-10.876 26.6163h-4.27z" fill="#fff"></path></g><path d="m124 12h-40c-13.2548 0-24 10.7452-24 24v40c0 13.2548 10.7452 24 24 24h40c13.255 0 24-10.7452 24-24v-40c0-13.2548-10.745-24-24-24z" fill="#3d3935"></path><path d="m84.9587 47.0339v-21.8479h-7.0476v28.8955h22.3239v-7.0476zm31.8483 10.7197-.834 1.9548-11.635 27.3014h7.048l2.689-6.6459h10.257l2.689 6.6459h7.049l-11.636-27.3014-.833-1.9548zm2.397 9.9377 2.63 6.5007h-5.261zm-.786-19.3801c-4.792 0-8.677-3.8852-8.677-8.6775 0-4.7922 3.885-8.6768 8.677-8.6768s8.678 3.8846 8.678 8.6768c0 4.7923-3.885 8.6775-8.678 8.6775zm0-23.7399c-8.319 0-15.062 6.7439-15.062 15.0624 0 8.3192 6.743 15.0631 15.062 15.0631s15.063-6.7439 15.063-15.0631c0-8.3185-6.744-15.0624-15.063-15.0624z" fill="#fff"></path><path d="m96.276 76.9951c-1.4363 2.6551-4.1599 4.4515-7.2889 4.4515-4.6225 0-8.3701-3.9134-8.3701-8.7402s3.7476-8.7397 8.3701-8.7397c2.97 0 5.5723 1.6198 7.0582 4.0549h6.7627c-1.891-6.0852-7.3623-10.4864-13.8209-10.4864-8.025 0-14.5301 6.7923-14.5301 15.1712 0 8.3794 6.5051 15.1718 14.5301 15.1718 6.5981 0 12.1649-4.5936 13.9379-10.8831z" fill="#fff"></path></svg>