<svg fill="none" height="112" viewBox="0 0 208 112" width="208" xmlns="http://www.w3.org/2000/svg"><path clip-rule="evenodd" d="m142.333 12.097v18.0118l-12.811 5.3922.276.2344c8.03 7.024 12.631 17.1733 12.631 27.8166 0 20.3352-16.549 36.885-36.882 36.885-20.3291 0-36.8672-16.5498-36.8672-36.885 0-10.6546 4.6074-20.7954 12.6393-27.8166l.2739-.2344-12.8059-5.3922v-18.0118l22.2465 9.4859s.0442.0839.1274.2416l.3609.6849c2.2578 4.2836 11.5861 21.9815 11.8291 22.4379-9.4462 1.135-16.5324 9.0652-16.5324 18.6047 0 10.3243 8.3989 18.7458 18.7284 18.7458 10.328 0 18.729-8.4215 18.729-18.7458 0-9.5395-7.091-17.4697-16.538-18.6047.238-.4564 9.581-18.1543 11.843-22.4379l.361-.6849c.084-.1577.128-.2416.128-.2416zm-18.815-2.76497-17.97 34.15457-17.9522-34.15457 17.9522 9.02847z" fill="#fdb813" fill-rule="evenodd"></path></svg>