<svg enable-background="new 0 0 208 112" viewBox="0 0 208 112" xmlns="http://www.w3.org/2000/svg"><g fill="#003cdc"><path d="m64.1 49.125h5.7v-3.75h-5.7v-8.125h-5.067v20.625h5.067z"></path><path d="m53.967 56 2.533-3.75c-1.9-1.25-3.8-2.5-5.7-4.375-1.267-1.875-2.533-4.375-2.533-6.875v-3.125h-5.067v3.125c0 3.125-.633 5.625-2.533 7.5s-3.8 3.75-6.333 5l3.167 3.75c1.9-1.25 3.8-2.5 5.067-3.75s2.533-3.125 3.167-4.375c1.898 2.5 4.432 5 8.232 6.875z"></path><path d="m43.2 73.5h21.533v-15h-21.533zm5.067-10.625h11.4v6.875h-11.4z"></path><path d="m96.4 43.5h-6.967v4.375h6.967v10h5.066v-20.625h-5.066z"></path><path d="m98.3 59.75c-1.267-1.875-4.433-2.5-6.967-2.5-2.533 0-5.067 1.25-6.967 2.5-1.266 1.875-2.533 3.75-2.533 6.25s.633 5 2.533 6.25c1.9 1.875 4.433 2.5 6.967 2.5 2.533 0 5.067-1.25 6.967-2.5 1.267-1.25 2.533-3.125 2.533-6.25 0-2.5-.633-5-2.533-6.25zm-7.6 10.625c-3.167 0-5.067-1.875-5.067-4.375s1.9-4.375 5.067-4.375c1.9 0 3.167.625 3.8 1.25.633 1.25 1.267 1.875 1.267 3.125-.001 2.5-1.9 4.375-5.067 4.375z"></path><path d="m84.367 53.5c1.267 1.25 3.167 2.5 5.067 3.125l2.533-3.75c-1.9-1.25-4.433-2.5-5.7-4.375s-2.533-3.75-2.533-6.875v-3.75h-5.067v4.375c0 2.5-1.267 4.375-2.533 6.25-1.9 2.5-3.8 4.375-6.333 5.625l3.167 3.75c1.9-.625 3.8-2.5 5.067-3.75 1.265-1.25 2.532-3.125 3.165-4.375.633 1.25 1.9 2.5 3.167 3.75z"></path><path d="m134.4 37.25h-5.067v32.5h5.067v-18.125h5.7v-3.75h-5.7z"></path><path d="m109.067 42.875h12.033c0 1.25 0 2.5-.633 3.75l-12.667.625.633 4.375 9.5-.625c-.633.625-1.266 1.25-1.9 1.875-2.533 2.5-5.7 4.375-9.5 5.625l3.167 3.75c5.067-1.875 8.867-5 12.033-8.75 2.534-3.75 4.434-8.125 4.434-14.375h-17.1z"></path><path d="m168.6 51.625h-17.733v-8.75h17.733v-3.75h-22.8v16.25h22.8z"></path><path d="m140.733 61.625h32.934v3.75h-32.934z"></path></g></svg>