<svg id="samsungpay-logo" viewBox="0 0 52 28" xmlns="http://www.w3.org/2000/svg"><g fill="#1a4ac5"><path d="m38.07 11.81h1.82c1.1 0 1.91.84 1.91 1.89s-.82 1.91-1.92 1.91h-.82v1.52h-.99zm.99.92v1.96h.75c.59 0 .99-.43.99-.99s-.4-.97-.99-.97z"></path><path d="m42.07 15c0-1.41 1.04-2.22 2.11-2.22.57 0 1.07.23 1.37.6v-.5h.99v4.27h-.99v-.55c-.32.4-.82.64-1.39.64-1.02-.02-2.09-.84-2.09-2.22zm3.53-.02c0-.72-.55-1.3-1.27-1.3s-1.29.57-1.29 1.3.57 1.32 1.29 1.32 1.27-.59 1.27-1.32z"></path><path d="m48.68 16.91-1.76-4.05h1.05l1.19 2.88 1.12-2.88h1.04l-2.54 6.22h-1z"></path><path d="m29.12 11.96.07 3.9h-.02l-1.14-3.9h-1.85v4.92h1.22l-.07-4.04h.03l1.23 4.04h1.77v-4.92z"></path><path d="m5.72 11.96-.92 4.97h1.35l.67-4.52h.04l.65 4.52h1.34l-.91-4.97z"></path><path d="m13.23 11.96-.6 3.79h-.04l-.61-3.79h-2.03l-.1 4.97h1.24l.03-4.47h.04l.82 4.47h1.27l.82-4.47h.03l.03 4.47h1.24l-.1-4.97z"></path><path d="m2.71 15.52c.05.12.03.27.02.37-.03.17-.15.33-.49.33s-.5-.18-.5-.45v-.49h-1.34v.38c0 1.1.87 1.44 1.81 1.44s1.64-.3 1.76-1.14c.07-.43.02-.7 0-.82-.22-1.04-2.09-1.35-2.24-1.94-.02-.1-.02-.2 0-.27.03-.17.15-.33.45-.33.28 0 .47.18.47.45v.3h1.24v-.35c0-1.09-.97-1.25-1.67-1.25-.89 0-1.61.3-1.74 1.1-.03.22-.03.42.02.67.2 1.05 1.97 1.35 2.22 1.99"></path><path d="m18.87 15.52c.05.12.03.27.02.37-.03.17-.15.33-.49.33-.3 0-.5-.18-.5-.45v-.47h-1.32v.38c0 1.1.87 1.42 1.79 1.42s1.62-.3 1.74-1.12c.07-.42.02-.7 0-.8-.2-1.04-2.07-1.34-2.21-1.91-.02-.1-.02-.2 0-.25.03-.15.15-.33.45-.33.28 0 .45.18.45.45v.3h1.22v-.35c0-1.07-.97-1.24-1.66-1.24-.87 0-1.59.28-1.72 1.09-.03.22-.03.42.02.67.22.97 1.96 1.25 2.21 1.91"></path><path d="m23.05 16.17c.35 0 .45-.23.47-.37.02-.05.02-.13.02-.18v-3.68h1.25v3.56c0 .08 0 .28-.02.33-.08.92-.82 1.22-1.74 1.22s-1.66-.3-1.74-1.22c0-.05-.02-.23-.02-.33v-3.55h1.25v3.68c0 .07 0 .13.02.18.05.12.15.35.5.35"></path><path d="m33.42 16.12c.37 0 .49-.23.5-.37.02-.05.02-.13.02-.18v-.72h-.5v-.72h1.76v1.34c0 .1 0 .17-.02.33-.08.9-.87 1.22-1.76 1.22s-1.67-.32-1.76-1.22c-.02-.17-.02-.23-.02-.33v-2.09c0-.08.02-.25.02-.33.12-.94.87-1.22 1.74-1.22s1.66.3 1.74 1.22c.02.15.02.33.02.33v.17h-1.25v-.28s0-.12-.02-.18c-.02-.12-.12-.37-.5-.37s-.47.23-.5.37c-.02.07-.02.15-.02.23v2.27c0 .07 0 .13.02.18.05.13.17.35.54.35"></path></g></svg>