<svg enable-background="new 0 0 208 112" viewBox="0 0 208 112" xmlns="http://www.w3.org/2000/svg"><g fill="#3f4997"><path d="m75.634 86.256c-.208.127-.516.208-.916.247-.402.034-.707.056-.914.056h-5.403c-.595 0-1.024-.159-1.277-.476-.264-.314-.421-.611-.473-.891v-15.661c0-.25.139-.564.412-.928.272-.367.719-.549 1.339-.549h5.169c.208 0 .513.022.919.055.398.04.706.121.909.247l3.538 1.782 2.566-3.867-4.12-2.729c-.443-.28-.895-.431-1.361-.457-.466-.022-.752-.037-.856-.037h-8.396c-.149 0-.433.021-.835.057-.401.034-.768.232-1.109.586l-3.262 3.303c-.339.325-.527.695-.561 1.099-.042.403-.063.666-.063.795v16.836c0 .123.021.393.063.793.035.407.223.777.561 1.102l3.262 3.304c.34.353.708.547 1.109.586.402.037.685.056.835.056h8.63c.103 0 .389-.014.856-.037.465-.025.923-.182 1.358-.457l4.12-2.729-2.562-3.87z"></path><path d="m33.05 29.811c0-.252.138-.56.413-.927.273-.364.714-.552 1.341-.552h5.17c.205 0 .508.022.911.056.397.04.703.118.912.25l3.539 1.779 2.564-3.867-4.117-2.729c-.444-.28-.894-.429-1.362-.454-.468-.028-.752-.04-.856-.04h-8.394c-.159 0-.435.017-.839.059-.402.034-.77.236-1.109.588l-3.261 3.298c-.338.328-.523.692-.565 1.099-.039.406-.056.669-.056.793v4.06c0 .911.147 1.704.441 2.388.303.686.682 1.266 1.15 1.743.464.482.985.857 1.555 1.121.568.263 1.127.437 1.669.51l7.775 1.328c.827.151 1.339.421 1.533.796.198.378.294.821.294 1.328v2.959c0 .252-.138.56-.408.925-.271.373-.719.555-1.339.555h-5.486c-.202 0-.511-.022-.912-.056-.399-.039-.702-.12-.915-.249l-3.573-1.78-2.526 3.865 4.118 2.729c.441.278.897.429 1.361.46.466.022.754.034.857.034h8.783c.155 0 .438-.02.837-.058.404-.034.772-.228 1.109-.58l3.185-3.226c.339-.33.528-.697.562-1.103.042-.404.059-.667.059-.796v-4.662c0-1.743-.393-3.044-1.185-3.907-.789-.86-1.886-1.401-3.286-1.631l-7.968-1.364c-.517-.099-.975-.323-1.378-.665-.404-.336-.604-.776-.604-1.302v-2.775z"></path><path d="m65.761 35.786c.477.566.717 1.166.717 1.8v14.106h5.713v-15.171c0-.123-.018-.387-.059-.793-.036-.406-.224-.771-.561-1.101l-4.044-4.055c-.336-.353-.704-.552-1.107-.591-.399-.04-.682-.056-.837-.056h-4.624c-.127 0-.464.09-1.011.264-.538.179-1.097.482-1.67.91v-9.895h-5.713v30.488h5.713v-15.735c0-.283.096-.524.29-.724.198-.201.409-.305.645-.305h4.585c.831.001 1.484.287 1.963.858z"></path><path d="m119.106 35.957c0-.283.096-.524.29-.724.194-.201.409-.305.639-.305h4.591c.826 0 1.482.286 1.962.857.478.566.717 1.166.717 1.8v14.106h5.713v-15.17c0-.123-.016-.387-.056-.793-.039-.406-.225-.771-.564-1.101l-4.044-4.055c-.337-.353-.704-.552-1.108-.591-.397-.04-.68-.056-.835-.056h-4.624c-.129 0-.467.09-1.011.264-.544.179-1.1.482-1.67.91v-9.895h-5.716v30.488h5.716z"></path><path d="m31.344 16.995 8.668 3.604c.408.123.699.05.856-.229l1.626-2.993c.056-.154.056-.32 0-.493-.053-.179-.149-.305-.306-.381l-8.633-3.907c-.126-.098-.276-.112-.444-.039-.171.081-.309.194-.412.342l-1.592 3.261c-.052.129-.059.283-.017.454.04.179.122.305.254.381z"></path><path d="m94.81 36.826c0-.504.138-.933.411-1.286.271-.353.774-.555 1.495-.611h3.576c.83 0 1.482.286 1.965.857.476.566.718 1.166.718 1.8v14.106h5.711v-15.171c0-.123-.017-.387-.053-.793-.04-.406-.23-.771-.567-1.101l-4.041-4.055c-.339-.353-.707-.552-1.109-.591-.4-.04-.679-.056-.836-.056h-7.156c-.152 0-.429.016-.832.056-.401.039-.768.238-1.106.591l-3.265 3.298c-.339.328-.527.692-.563 1.099-.04.403-.062.669-.062.795v15.928h5.713v-14.866z"></path><path d="m180.808 35.727c-.04-.406-.229-.771-.564-1.101l-4.044-4.055c-.338-.353-.706-.552-1.109-.591-.4-.04-.676-.056-.834-.056h-7.154c-.153 0-.433.016-.836.056-.401.039-.768.238-1.102.591l-3.269 3.298c-.335.328-.524.692-.565 1.099-.035.403-.055.669-.055.795v15.928h5.712v-14.865c0-.504.135-.933.411-1.286.271-.353.771-.555 1.495-.611h3.576c.829 0 1.482.286 1.964.857.477.566.718 1.166.718 1.8v14.106h5.712v-15.171c0-.124-.018-.387-.056-.794z"></path><path d="m137.781 70.822c-.569-.429-1.128-.734-1.671-.91-.548-.177-.88-.266-1.012-.266h-5.244c-.159 0-.436.016-.838.056-.404.039-.772.235-1.108.591l-3.264 3.298c-.334.328-.523.695-.563 1.099-.043.404-.057.673-.057.796v10.091c0 .123.014.389.057.793.04.406.229.771.563 1.098l3.264 3.298c.336.356.704.555 1.108.589.402.041.679.058.838.058h7.809c.158 0 .438-.017.837-.058.402-.034.768-.233 1.106-.59l3.268-3.298c.335-.327.521-.692.566-1.098.035-.404.055-.67.055-.793v-24.651h-5.714zm0 13.692c0 .554-.151 1.008-.449 1.362-.299.353-.861.535-1.686.535h-3.775c-.829 0-1.39-.182-1.691-.535-.294-.354-.448-.808-.448-1.362v-7.967c0-.558.154-1.006.448-1.365.301-.35.862-.532 1.691-.532h4.973c.236 0 .452.104.648.305.19.199.289.44.289.72z"></path><path d="m113.316 69.701c-.403.039-.773.238-1.109.591l-3.266 3.298c-.336.328-.525.692-.564 1.099-.036.403-.059.669-.059.795v15.928h5.715v-14.105c0-.885.191-1.536.563-1.953.373-.417.929-.647 1.651-.703h5.015v-5.004h-7.112c-.158-.002-.431.014-.834.054z"></path><path d="m155.912 33.11-3.264-2.541c-.466-.404-1.116-.616-1.941-.644h-9.992v4.781h7.888c.673.051 1.2.297 1.573.733.377.449.592 1.07.646 1.878v1.709c-.363-.353-.814-.659-1.339-.911-.535-.252-1.128-.378-1.774-.378h-4.547c-.154 0-.412.031-.774.098-.361.059-.651.194-.856.396l-2.994 2.502c-.206.152-.423.367-.641.647-.221.275-.333.692-.333 1.25v4.436c0 .277.045.605.137.984.09.381.435.787 1.034 1.216l2.718 2.009c.206.127.48.227.814.306.34.073.685.112 1.051.112h7.462c.524 0 .946-.022 1.283-.058.336-.037.57-.107.698-.206l2.877-2.317c.445-.379.703-.754.777-1.118.082-.365.118-.701.118-1.004v-11.983c0-.126-.021-.393-.06-.796-.038-.406-.226-.773-.561-1.101zm-5.09 13.235c-.054.303-.178.505-.369.605-.198.101-.4.151-.602.151h-4.746c-.596 0-1.061-.107-1.395-.32-.34-.218-.511-.627-.511-1.236v-2.12c0-.054.009-.135.023-.247.011-.112.058-.235.137-.358.076-.129.191-.241.351-.342.154-.098.373-.151.661-.151h5.552c.494 0 .794.163.899.494z"></path><path d="m102.957 72.831-3.266-2.541c-.466-.404-1.114-.616-1.942-.644h-9.992v4.781h7.891c.674.051 1.199.297 1.572.733.379.449.591 1.071.645 1.878v1.709c-.362-.353-.811-.659-1.339-.911-.536-.252-1.125-.378-1.771-.378h-4.549c-.154 0-.412.031-.773.098-.362.059-.649.194-.857.396l-2.992 2.502c-.208.152-.423.367-.64.647-.224.275-.333.692-.333 1.25v4.436c0 .277.045.605.136.984.087.381.432.787 1.029 1.216l2.723 2.009c.206.126.478.227.814.306.339.073.685.112 1.051.112h7.458c.526 0 .947-.022 1.286-.058.337-.037.57-.107.699-.206l2.877-2.317c.442-.379.701-.754.774-1.118.079-.365.121-.701.121-1.004v-11.983c0-.126-.023-.392-.06-.796-.039-.406-.227-.773-.562-1.101zm-5.093 13.235c-.054.303-.175.505-.368.605-.199.101-.399.151-.604.151h-4.742c-.596 0-1.062-.107-1.398-.32-.337-.218-.508-.627-.508-1.236v-2.121c0-.054.006-.135.022-.247.012-.112.059-.236.135-.358.078-.129.193-.241.351-.342.155-.098.376-.151.657-.151h5.556c.494 0 .795.163.899.494z"></path><path d="m84.228 21.05c-.119-.077-.24-.113-.361-.113h-5.539c-.151 0-.288.036-.409.113-.244.154-.364.384-.364.686v4.206c0 .176.045.317.141.418.148.283.436.417.858.417h5.132c.422 0 .692-.165.813-.49.066-.128.093-.292.093-.493v-4.058c0-.204-.04-.353-.116-.457-.072-.101-.163-.177-.248-.229z"></path><path d="m77.735 29.924h6.627v21.768h-6.627z"></path></g></svg>