<svg id="ssgpay-logo" viewBox="0 0 52 28" xmlns="http://www.w3.org/2000/svg"><g fill-rule="evenodd"><path d="m33.7 10.37-3.09 7.07h.89l2.5-5.65 1.13 2.56h-1.13v.77h1.49l1.01 2.38h.89l-1.01-2.38h.95v-.77h-1.37l-1.72-3.92-.53-.06z" fill="#e4503a"></path><path d="m41.24 10.37-2.2 2.91-2.26-2.91h-1.01l2.85 3.68v3.39h.77v-3.33l2.85-3.74h-1.01z" fill="#e4503a"></path><path d="m25.79 13.88v2.61c-.53.59-1.55.89-2.56.89-1.96 0-3.51-1.55-3.51-3.51s1.55-3.51 3.51-3.51c.95 0 1.84.36 2.5 1.01l-.59.59c-1.07-1.07-2.73-1.07-3.8 0s-1.07 2.73 0 3.8c.53.53 1.19.77 1.9.77.65 0 1.19-.06 1.72-.42v-1.37h-1.9v-.83h2.73v-.06zm-11.59 1.49c-.06 1.01-.77 2.02-2.38 2.02-1.01 0-1.78-.59-2.14-.95l.59-.59c.24.24.83.71 1.6.71.89 0 1.49-.42 1.49-1.13 0-.36-.12-.71-1.49-1.13-1.07-.3-2.14-.83-2.14-2.02 0-.53.18-1.01.53-1.31.42-.36.95-.59 1.6-.59.83 0 1.49.3 1.84.59l-.42.65c-.42-.3-.95-.42-1.43-.42-.83 0-1.31.42-1.31 1.07 0 .36.12.77 1.55 1.19 1.07.3 2.08.77 2.08 1.9m4.99.06c0 1.01-.71 1.96-2.32 1.96-1.01 0-1.78-.59-2.14-.95l.59-.59c.24.24.83.71 1.55.71.89 0 1.49-.42 1.49-1.13 0-.36-.12-.71-1.49-1.13-1.07-.36-2.14-.83-2.14-2.02 0-.53.18-1.01.53-1.31.42-.36.95-.59 1.6-.59.83 0 1.49.3 1.84.59l-.42.71c-.42-.3-.89-.48-1.43-.48-.83 0-1.31.42-1.31 1.07 0 .36.12.77 1.55 1.19 1.07.36 2.08.77 2.08 1.96" fill="#323844"></path></g><path d="m41.72 16.31c-.3 0-.59.24-.59.59 0 .3.24.59.59.59.3 0 .59-.24.59-.59s-.3-.59-.59-.59z" fill="#e4503a"></path><path d="m27.75 15.13h1.31c.65 0 1.25-.24 1.66-.71.95-.95.95-2.44 0-3.39-.48-.48-1.07-.71-1.66-.71h-2.14v7.07h.83zm0-3.92h1.37c.83 0 1.55.71 1.55 1.55 0 .42-.18.77-.48 1.07s-.65.48-1.07.48h-1.37v-3.09z" fill="#e4503a"></path></svg>